<svg width="15" height="17" viewBox="0 0 15 17" fill="none" xmlns="http://www.w3.org/2000/svg">
<path fill-rule="evenodd" clip-rule="evenodd" d="M9.19166 0.183617C9.24987 0.241674 9.29605 0.310644 9.32756 0.386575C9.35906 0.462507 9.37528 0.543908 9.37528 0.626117C9.37528 0.708326 9.35906 0.789728 9.32756 0.865659C9.29605 0.941591 9.24987 1.01056 9.19166 1.06862L2.13291 8.12612L9.19166 15.1836C9.30902 15.301 9.37495 15.4601 9.37495 15.6261C9.37495 15.7921 9.30902 15.9513 9.19166 16.0686C9.07431 16.186 8.91513 16.2519 8.74916 16.2519C8.58319 16.2519 8.42402 16.186 8.30666 16.0686L0.806664 8.56862C0.74846 8.51056 0.702281 8.44159 0.670773 8.36566C0.639265 8.28973 0.623047 8.20833 0.623047 8.12612C0.623047 8.04391 0.639265 7.96251 0.670773 7.88658C0.702281 7.81064 0.74846 7.74167 0.806664 7.68362L8.30666 0.183617C8.36472 0.125413 8.43369 0.0792347 8.50962 0.0477266C8.58555 0.0162186 8.66696 0 8.74916 0C8.83137 0 8.91277 0.0162186 8.98871 0.0477266C9.06464 0.0792347 9.13361 0.125413 9.19166 0.183617V0.183617Z" fill="#6C757D"/>
<path fill-rule="evenodd" clip-rule="evenodd" d="M14.5686 0.183617C14.6268 0.241674 14.673 0.310644 14.7045 0.386575C14.736 0.462507 14.7522 0.543908 14.7522 0.626117C14.7522 0.708326 14.736 0.789728 14.7045 0.865659C14.673 0.941591 14.6268 1.01056 14.5686 1.06862L7.50987 8.12612L14.5686 15.1836C14.686 15.301 14.7519 15.4601 14.7519 15.6261C14.7519 15.7921 14.686 15.9513 14.5686 16.0686C14.4513 16.186 14.2921 16.2519 14.1261 16.2519C13.9601 16.2519 13.801 16.186 13.6836 16.0686L6.18362 8.56862C6.12541 8.51056 6.07923 8.44159 6.04773 8.36566C6.01622 8.28973 6 8.20833 6 8.12612C6 8.04391 6.01622 7.96251 6.04773 7.88658C6.07923 7.81064 6.12541 7.74167 6.18362 7.68362L13.6836 0.183617C13.7417 0.125413 13.8106 0.0792347 13.8866 0.0477266C13.9625 0.0162186 14.0439 0 14.1261 0C14.2083 0 14.2897 0.0162186 14.3657 0.0477266C14.4416 0.0792347 14.5106 0.125413 14.5686 0.183617V0.183617Z" fill="#6C757D"/>
</svg>
