<svg width="10" height="18" viewBox="0 0 10 18" fill="none" xmlns="http://www.w3.org/2000/svg">
<path fill-rule="evenodd" clip-rule="evenodd" d="M9.19166 1.05666C9.24987 1.11472 9.29605 1.18369 9.32755 1.25962C9.35906 1.33555 9.37528 1.41696 9.37528 1.49916C9.37528 1.58137 9.35906 1.66277 9.32755 1.73871C9.29605 1.81464 9.24987 1.88361 9.19166 1.94166L2.13291 8.99916L9.19166 16.0567C9.30902 16.174 9.37495 16.3332 9.37495 16.4992C9.37495 16.6651 9.30902 16.8243 9.19166 16.9417C9.07431 17.059 8.91513 17.125 8.74916 17.125C8.58319 17.125 8.42402 17.059 8.30666 16.9417L0.806664 9.44166C0.74846 9.38361 0.702281 9.31464 0.670773 9.23871C0.639265 9.16277 0.623047 9.08137 0.623047 8.99916C0.623047 8.91695 0.639265 8.83555 0.670773 8.75962C0.702281 8.68369 0.74846 8.61472 0.806664 8.55666L8.30666 1.05666C8.36472 0.99846 8.43369 0.952282 8.50962 0.920774C8.58555 0.889265 8.66696 0.873047 8.74916 0.873047C8.83137 0.873047 8.91278 0.889265 8.98871 0.920774C9.06464 0.952282 9.13361 0.99846 9.19166 1.05666Z" fill="#6C757D"/>
</svg>
