<svg width="30" height="31" viewBox="0 0 30 31" fill="none" xmlns="http://www.w3.org/2000/svg">
<path d="M30 15.2059C30 23.5109 23.2843 30.2434 15 30.2434C6.71573 30.2434 0 23.5109 0 15.2059C0 6.90095 6.71573 0.168457 15 0.168457C23.2843 0.168457 30 6.90095 30 15.2059Z" fill="#5D87FF"/>
<path d="M11.2247 17.6408L7.28613 13.6307L11.2247 9.62061" stroke="white" stroke-width="2" stroke-linecap="round" stroke-linejoin="round"/>
<path d="M7.28613 13.6304H18.1172C19.1617 13.6304 20.1635 14.0529 20.9022 14.8049C21.6408 15.5569 22.0557 16.5769 22.0557 17.6405C22.0557 18.704 21.6408 19.724 20.9022 20.476C20.1635 21.2281 19.1617 21.6505 18.1172 21.6505H17.1325" stroke="white" stroke-width="2" stroke-linecap="round" stroke-linejoin="round"/>
</svg>
