<svg width="10" height="18" viewBox="0 0 10 18" fill="none" xmlns="http://www.w3.org/2000/svg">
<path fill-rule="evenodd" clip-rule="evenodd" d="M0.806664 1.05666C0.864721 0.99846 0.93369 0.952282 1.00962 0.920774C1.08555 0.889265 1.16695 0.873047 1.24916 0.873047C1.33137 0.873047 1.41277 0.889265 1.48871 0.920774C1.56464 0.952282 1.63361 0.99846 1.69166 1.05666L9.19166 8.55666C9.24987 8.61472 9.29605 8.68369 9.32755 8.75962C9.35906 8.83555 9.37528 8.91695 9.37528 8.99916C9.37528 9.08137 9.35906 9.16277 9.32755 9.23871C9.29605 9.31464 9.24987 9.38361 9.19166 9.44166L1.69166 16.9417C1.57431 17.059 1.41513 17.125 1.24916 17.125C1.08319 17.125 0.924022 17.059 0.806664 16.9417C0.689305 16.8243 0.623374 16.6651 0.623374 16.4992C0.623374 16.3332 0.689305 16.174 0.806664 16.0567L7.86541 8.99916L0.806664 1.94166C0.74846 1.88361 0.702281 1.81464 0.670773 1.73871C0.639265 1.66277 0.623047 1.58137 0.623047 1.49916C0.623047 1.41696 0.639265 1.33555 0.670773 1.25962C0.702281 1.18369 0.74846 1.11472 0.806664 1.05666Z" fill="#6C757D"/>
</svg>
