<svg width="15" height="17" viewBox="0 0 15 17" fill="none" xmlns="http://www.w3.org/2000/svg">
<path fill-rule="evenodd" clip-rule="evenodd" d="M0.806664 0.183617C0.864721 0.125413 0.93369 0.0792347 1.00962 0.0477266C1.08555 0.0162186 1.16695 0 1.24916 0C1.33137 0 1.41277 0.0162186 1.48871 0.0477266C1.56464 0.0792347 1.63361 0.125413 1.69166 0.183617L9.19166 7.68362C9.24987 7.74167 9.29605 7.81064 9.32756 7.88658C9.35906 7.96251 9.37528 8.04391 9.37528 8.12612C9.37528 8.20833 9.35906 8.28973 9.32756 8.36566C9.29605 8.44159 9.24987 8.51056 9.19166 8.56862L1.69166 16.0686C1.57431 16.186 1.41513 16.2519 1.24916 16.2519C1.08319 16.2519 0.924022 16.186 0.806664 16.0686C0.689305 15.9513 0.623374 15.7921 0.623374 15.6261C0.623374 15.4601 0.689305 15.301 0.806664 15.1836L7.86541 8.12612L0.806664 1.06862C0.74846 1.01056 0.702281 0.941591 0.670773 0.865659C0.639265 0.789728 0.623047 0.708326 0.623047 0.626117C0.623047 0.543908 0.639265 0.462507 0.670773 0.386575C0.702281 0.310644 0.74846 0.241674 0.806664 0.183617V0.183617Z" fill="#6C757D"/>
<path fill-rule="evenodd" clip-rule="evenodd" d="M6.18362 0.183617C6.24167 0.125413 6.31064 0.0792347 6.38657 0.0477266C6.46251 0.0162186 6.54391 0 6.62612 0C6.70833 0 6.78973 0.0162186 6.86566 0.0477266C6.94159 0.0792347 7.01056 0.125413 7.06862 0.183617L14.5686 7.68362C14.6268 7.74167 14.673 7.81064 14.7045 7.88658C14.736 7.96251 14.7522 8.04391 14.7522 8.12612C14.7522 8.20833 14.736 8.28973 14.7045 8.36566C14.673 8.44159 14.6268 8.51056 14.5686 8.56862L7.06862 16.0686C6.95126 16.186 6.79209 16.2519 6.62612 16.2519C6.46015 16.2519 6.30098 16.186 6.18362 16.0686C6.06626 15.9513 6.00033 15.7921 6.00033 15.6261C6.00033 15.4601 6.06626 15.301 6.18362 15.1836L13.2424 8.12612L6.18362 1.06862C6.12541 1.01056 6.07923 0.941591 6.04773 0.865659C6.01622 0.789728 6 0.708326 6 0.626117C6 0.543908 6.01622 0.462507 6.04773 0.386575C6.07923 0.310644 6.12541 0.241674 6.18362 0.183617V0.183617Z" fill="#6C757D"/>
</svg>
