<svg width="32" height="33" viewBox="0 0 32 33" fill="none" xmlns="http://www.w3.org/2000/svg">
<path d="M8.05882 14.3223V29.3552C8.05882 29.8536 7.8729 30.3315 7.54195 30.6839C7.21101 31.0363 6.76215 31.2343 6.29412 31.2343H2.76471C2.29668 31.2343 1.84782 31.0363 1.51687 30.6839C1.18592 30.3315 1 29.8536 1 29.3552V16.2014C1 15.703 1.18592 15.2251 1.51687 14.8727C1.84782 14.5202 2.29668 14.3223 2.76471 14.3223H8.05882ZM8.05882 14.3223C9.93094 14.3223 11.7264 13.5304 13.0502 12.1207C14.374 10.7111 15.1176 8.7993 15.1176 6.80581V4.92669C15.1176 3.92994 15.4895 2.97402 16.1514 2.26922C16.8133 1.56441 17.711 1.16846 18.6471 1.16846C19.5831 1.16846 20.4808 1.56441 21.1427 2.26922C21.8046 2.97402 22.1765 3.92994 22.1765 4.92669V14.3223H27.4706C28.4066 14.3223 29.3044 14.7182 29.9663 15.423C30.6282 16.1278 31 17.0838 31 18.0805L29.2353 27.4761C28.9815 28.6289 28.5001 29.6187 27.8635 30.2966C27.2269 30.9744 26.4697 31.3035 25.7059 31.2343H13.3529C11.9489 31.2343 10.6023 30.6404 9.60943 29.5832C8.6166 28.526 8.05882 27.0921 8.05882 25.597" stroke="#333F55" stroke-width="2" stroke-linecap="round" stroke-linejoin="round"/>
</svg>
